# xmcd
#
# Track frame offsets: 
#        150
#        15672
#        31416
#        48333
#        64528
#        81850
#        102091
#        119113
#        131563
#        143780
#        161387
#        177958
#        195429
#        211845
#        232990
#        249774
#        261923
#        272800
#        285577
#        297649
#        310235
#
# Disc length: 4439 seconds
#
# Revision: 5
# Processed by: cddbd v1.5PL3 Copyright (c) Steve Scherf et al.
# Submitted via: ExactAudioCopy v0.95a5
#
DISCID=2b115515
DTITLE=Helena Vondrackova - Platinova
DYEAR=2002
DGENRE=Folklore
TTITLE0=Sundej kravatu
TTITLE1=Deja vu
TTITLE2=Neuc slunce hrat
TTITLE3=Dlouha noc
TTITLE4=To tehdy padal dest
TTITLE5=Tam kde jsi ty
TTITLE6=Bulhari
TTITLE7=Sprint
TTITLE8=Jeste svetu sanci dej
TTITLE9=Svaly
TTITLE10=Je to maly svet
TTITLE11=Vzhuru k vyskam
TTITLE12=To je stesti
TTITLE13=Kazda trampota ma svou mez
TTITLE14=Tanecnice Kitty
TTITLE15=Kdyz zabloudis tak zavolej
TTITLE16=Znala panna pana
TTITLE17=Fanfan
TTITLE18=Archimede
TTITLE19=Pata
TTITLE20=Smes pisni
EXTD=YEAR: 2000
EXTT0=
EXTT1=
EXTT2=
EXTT3=
EXTT4=
EXTT5=
EXTT6=
EXTT7=
EXTT8=
EXTT9=
EXTT10=
EXTT11=
EXTT12=
EXTT13=
EXTT14=
EXTT15=
EXTT16=
EXTT17=
EXTT18=
EXTT19=
EXTT20=
PLAYORDER=
